<?xml version="1.0" standalone="no"?>
<!DOCTYPE svg PUBLIC "-//W3C//DTD SVG 20010904//EN"
 "http://www.w3.org/TR/2001/REC-SVG-20010904/DTD/svg10.dtd">
<svg version="1.0" xmlns="http://www.w3.org/2000/svg"
 width="244.000000pt" height="244.000000pt" viewBox="0 0 244.000000 244.000000"
 preserveAspectRatio="xMidYMid meet">

<g transform="translate(0.000000,244.000000) scale(0.100000,-0.100000)"
fill="#000000" stroke="none">
<path d="M1221 2373 c-18 -16 -21 -30 -23 -128 l-3 -109 -93 -13 c-114 -15
-237 -56 -339 -114 -108 -61 -271 -224 -332 -332 -77 -137 -121 -295 -121
-436 0 -111 58 -169 159 -159 88 9 131 68 131 182 0 103 53 240 133 344 96
126 297 232 438 232 l29 0 0 -109 c0 -107 1 -110 27 -131 17 -13 35 -19 49
-16 21 6 586 327 613 349 21 18 31 55 22 80 -7 17 -69 59 -208 139 -453 264
-438 257 -482 221z m339 -193 c152 -88 285 -167 296 -175 19 -15 19 -15 -3
-33 -12 -11 -148 -92 -303 -181 -229 -133 -284 -160 -295 -151 -12 10 -15 40
-15 131 l0 119 -49 0 c-188 0 -408 -120 -520 -284 -73 -106 -121 -248 -121
-356 0 -91 -50 -139 -124 -119 -53 15 -66 41 -66 129 0 196 97 415 251 568
154 154 375 252 569 252 l60 0 0 123 c0 68 3 127 7 130 3 4 13 7 21 7 8 0 139
-72 292 -160z"/>
<path d="M1925 1350 c-54 -22 -85 -86 -85 -173 0 -151 -104 -348 -237 -449
-96 -72 -238 -127 -330 -128 l-33 0 0 109 c0 107 -1 110 -27 131 -42 33 -3 52
-526 -252 -76 -44 -145 -91 -154 -104 -28 -43 -7 -72 98 -135 283 -168 519
-299 541 -299 13 0 34 7 46 16 20 14 22 23 22 125 0 79 3 111 13 113 6 2 49 8
95 14 105 14 229 57 329 113 103 58 263 215 322 316 83 141 131 305 131 445 0
81 -16 116 -66 149 -30 20 -102 25 -139 9z m100 -44 c44 -19 55 -42 55 -121 0
-198 -99 -425 -252 -576 -151 -150 -377 -249 -567 -249 l-60 0 -3 -127 c-3
-120 -4 -128 -23 -130 -26 -3 -600 330 -600 348 0 15 30 34 359 224 283 162
266 163 266 -12 l0 -113 53 0 c75 0 195 33 275 75 211 111 339 306 362 551 8
87 22 117 65 135 28 11 31 11 70 -5z"/>
</g>
</svg>
